<svg xmlns="http://www.w3.org/2000/svg" viewBox="0 0 300 300"><path d="M149.996 0C67.157 0 .001 67.161.001 149.997S67.157 300 149.996 300s150.003-67.163 150.003-150.003S232.835 0 149.996 0zM78.081 221.593l35.517-57.227a112.476 112.476 0 0021.69 21.724l-57.207 35.503zm140.56-93.519c-3.779 3.781-10.185 4.152-17.302 1.73l-19.027 19.021c9.563 15.536 11.84 30.664 4.375 38.136-3.022 3.022-7.298 4.451-12.348 4.451-9.298 0-21.221-4.866-32.762-13.585-.257-.192-.511-.394-.765-.594a91.715 91.715 0 01-2.459-1.961c-.324-.267-.646-.534-.97-.807a102.764 102.764 0 01-2.321-2.031c-.303-.272-.609-.539-.913-.817a104.439 104.439 0 01-3.115-2.98 101.021 101.021 0 01-3.382-3.558c-.674-.742-1.307-1.491-1.95-2.241-.35-.41-.713-.817-1.056-1.232a95.112 95.112 0 01-2.394-3.016c-.096-.127-.195-.252-.288-.376-13.531-17.852-17.857-36.627-9.251-45.232 3.022-3.022 7.298-4.451 12.348-4.451 7.436 0 16.544 3.115 25.798 8.813l19.014-19.011c-2.422-7.119-2.049-13.523 1.735-17.302 7.083-7.088 23.36-2.303 36.346 10.686 12.992 12.989 17.777 29.266 10.687 36.357z"/></svg>