<svg xmlns="http://www.w3.org/2000/svg" viewBox="0 0 109.294 109.294"><path d="M54.648 48.141L101.063 19.2a9.821 9.821 0 00-1.542-.132H9.775c-.525 0-1.038.054-1.541.132l46.414 28.941z"/><path d="M57.569 59.331c-.062.04-.13.066-.194.104-.067.037-.139.073-.206.107a5.485 5.485 0 01-1.125.439c-.04.011-.078.017-.116.025-.423.099-.848.16-1.274.16h-.009c-.426 0-.852-.06-1.273-.16-.039-.009-.079-.015-.118-.025a5.64 5.64 0 01-1.124-.439 5.794 5.794 0 01-.207-.107c-.065-.037-.132-.063-.196-.104L.153 27.172A9.87 9.87 0 000 28.843v51.609a9.773 9.773 0 009.774 9.774H99.52c5.398 0 9.774-4.376 9.774-9.774V28.843c0-.572-.059-1.127-.154-1.671L57.569 59.331z"/></svg>