<?xml version="1.0" encoding="utf-8"?>
<!-- Generator: Adobe Illustrator 21.1.0, SVG Export Plug-In . SVG Version: 6.00 Build 0)  -->
<svg version="1.1" id="Layer_1" xmlns="http://www.w3.org/2000/svg" xmlns:xlink="http://www.w3.org/1999/xlink" x="0px" y="0px"
	 viewBox="0 0 512 512" style="enable-background:new 0 0 512 512;" xml:space="preserve">
<style type="text/css">
	.st0{fill:#68EDFF;}
	.st1{fill:#00A3FF;}
	.st2{fill:#FFDC3E;}
	.st3{fill:#FFAE23;}
	.st4{fill:#2C3C7E;}
	.st5{fill:#17CEFF;}
</style>
<path class="st0" d="M497,421.9H319c-8.3,0-15-6.7-15-15v-178c0-8.3,6.7-15,15-15h86.1c4,0,7.8,1.6,10.6,4.4l91.9,91.9
	c2.8,2.8,4.4,6.6,4.4,10.6v86.1C512,415.2,505.3,421.9,497,421.9z"/>
<path class="st1" d="M304,320.8v86.1c0,8.3,6.7,15,15,15h178c8.3,0,15-6.7,15-15v-86.1c0,0,0,0,0,0H304z"/>
<path class="st2" d="M167,155.6l159.8-0.4c0.1,0,0.2,0,0.3,0.1c4.3,2.8,6.9,7.5,6.9,12.6v253.9h0H15.6c-8.6,0-15.6-7-15.6-15.6V168
	c0-5.1,2.6-9.9,6.9-12.6c0.1-0.1,0.2-0.1,0.3-0.1L167,155.6c0.1,0-7.9,0.3-7.8,0.2"/>
<path class="st3" d="M167,155.6v266.3h167V168c0-5.2-2.7-10-7-12.7"/>
<g>
	<path class="st4" d="M408,454.4c-26.2,0-47.5-21.3-47.5-47.5c0-26.2,21.3-47.5,47.5-47.5s47.5,21.3,47.5,47.5
		C455.5,433.1,434.2,454.4,408,454.4z"/>
	<path class="st4" d="M154.5,454.4c-26.2,0-47.5-21.3-47.5-47.5c0-26.2,21.3-47.5,47.5-47.5s47.5,21.3,47.5,47.5
		C202,433.1,180.7,454.4,154.5,454.4z"/>
</g>
<path class="st5" d="M202.5,325.7h-71c-8.3,0-15-6.7-15-15v-71c0-8.3,6.7-15,15-15h71c8.3,0,15,6.7,15,15v71
	C217.5,319,210.8,325.7,202.5,325.7z"/>
<path class="st1" d="M202.5,224.7H167v101h35.5c8.3,0,15-6.7,15-15v-71C217.5,231.5,210.8,224.7,202.5,224.7z"/>
</svg>
