<svg xmlns="http://www.w3.org/2000/svg" xmlns:xlink="http://www.w3.org/1999/xlink"><symbol id="icon-email" viewBox="0 0 109.294 109.294"><path d="M54.648 48.141L101.063 19.2a9.821 9.821 0 00-1.542-.132H9.775c-.525 0-1.038.054-1.541.132l46.414 28.941z"/><path d="M57.569 59.331c-.062.04-.13.066-.194.104-.067.037-.139.073-.206.107a5.485 5.485 0 01-1.125.439c-.04.011-.078.017-.116.025-.423.099-.848.16-1.274.16h-.009c-.426 0-.852-.06-1.273-.16-.039-.009-.079-.015-.118-.025a5.64 5.64 0 01-1.124-.439 5.794 5.794 0 01-.207-.107c-.065-.037-.132-.063-.196-.104L.153 27.172A9.87 9.87 0 000 28.843v51.609a9.773 9.773 0 009.774 9.774H99.52c5.398 0 9.774-4.376 9.774-9.774V28.843c0-.572-.059-1.127-.154-1.671L57.569 59.331z"/></symbol><symbol id="icon-phone" viewBox="0 0 108.27 108.27"><path d="M51.954 66.588c-9.284-7.634-15.483-17.054-18.742-22.414l-2.431-4.583c.85-.912 7.332-7.853 10.141-11.619 3.53-4.729-1.588-9-1.588-9S24.933 4.569 21.651 1.712C18.369-1.149 14.591.44 14.591.44 7.693 4.897.542 8.772.113 27.408.097 44.856 13.342 62.852 27.665 76.784c14.346 15.734 34.043 31.504 53.086 31.486 18.634-.425 22.508-7.575 26.965-14.473 0 0 1.59-3.775-1.268-7.06-2.86-3.284-17.265-17.688-17.265-17.688s-4.268-5.119-8.998-1.586c-3.525 2.635-9.855 8.496-11.38 9.917.003.005-10.586-5.64-16.851-10.792z"/></symbol><symbol id="icon-pin" viewBox="0 0 512 512"><path d="M256 0C161.896 0 85.333 76.563 85.333 170.667c0 28.25 7.063 56.26 20.49 81.104L246.667 506.5c1.875 3.396 5.448 5.5 9.333 5.5s7.458-2.104 9.333-5.5l140.896-254.813c13.375-24.76 20.438-52.771 20.438-81.021C426.667 76.563 350.104 0 256 0zm0 256c-47.052 0-85.333-38.281-85.333-85.333S208.948 85.334 256 85.334s85.333 38.281 85.333 85.333S303.052 256 256 256z"/></symbol></svg>