<svg xmlns="http://www.w3.org/2000/svg" xmlns:xlink="http://www.w3.org/1999/xlink"><symbol id="icon-email" viewBox="0 0 109.294 109.294"><path d="M54.648 48.141L101.063 19.2a9.821 9.821 0 00-1.542-.132H9.775c-.525 0-1.038.054-1.541.132l46.414 28.941z"/><path d="M57.569 59.331c-.062.04-.13.066-.194.104-.067.037-.139.073-.206.107a5.485 5.485 0 01-1.125.439c-.04.011-.078.017-.116.025-.423.099-.848.16-1.274.16h-.009c-.426 0-.852-.06-1.273-.16-.039-.009-.079-.015-.118-.025a5.64 5.64 0 01-1.124-.439 5.794 5.794 0 01-.207-.107c-.065-.037-.132-.063-.196-.104L.153 27.172A9.87 9.87 0 000 28.843v51.609a9.773 9.773 0 009.774 9.774H99.52c5.398 0 9.774-4.376 9.774-9.774V28.843c0-.572-.059-1.127-.154-1.671L57.569 59.331z"/></symbol><symbol id="icon-phone" viewBox="0 0 108.27 108.27"><path d="M51.954 66.588c-9.284-7.634-15.483-17.054-18.742-22.414l-2.431-4.583c.85-.912 7.332-7.853 10.141-11.619 3.53-4.729-1.588-9-1.588-9S24.933 4.569 21.651 1.712C18.369-1.149 14.591.44 14.591.44 7.693 4.897.542 8.772.113 27.408.097 44.856 13.342 62.852 27.665 76.784c14.346 15.734 34.043 31.504 53.086 31.486 18.634-.425 22.508-7.575 26.965-14.473 0 0 1.59-3.775-1.268-7.06-2.86-3.284-17.265-17.688-17.265-17.688s-4.268-5.119-8.998-1.586c-3.525 2.635-9.855 8.496-11.38 9.917.003.005-10.586-5.64-16.851-10.792z"/></symbol><symbol id="icon-pin" viewBox="0 0 300 300"><path d="M149.996 0C67.157 0 .001 67.161.001 149.997S67.157 300 149.996 300s150.003-67.163 150.003-150.003S232.835 0 149.996 0zM78.081 221.593l35.517-57.227a112.476 112.476 0 0021.69 21.724l-57.207 35.503zm140.56-93.519c-3.779 3.781-10.185 4.152-17.302 1.73l-19.027 19.021c9.563 15.536 11.84 30.664 4.375 38.136-3.022 3.022-7.298 4.451-12.348 4.451-9.298 0-21.221-4.866-32.762-13.585-.257-.192-.511-.394-.765-.594a91.715 91.715 0 01-2.459-1.961c-.324-.267-.646-.534-.97-.807a102.764 102.764 0 01-2.321-2.031c-.303-.272-.609-.539-.913-.817a104.439 104.439 0 01-3.115-2.98 101.021 101.021 0 01-3.382-3.558c-.674-.742-1.307-1.491-1.95-2.241-.35-.41-.713-.817-1.056-1.232a95.112 95.112 0 01-2.394-3.016c-.096-.127-.195-.252-.288-.376-13.531-17.852-17.857-36.627-9.251-45.232 3.022-3.022 7.298-4.451 12.348-4.451 7.436 0 16.544 3.115 25.798 8.813l19.014-19.011c-2.422-7.119-2.049-13.523 1.735-17.302 7.083-7.088 23.36-2.303 36.346 10.686 12.992 12.989 17.777 29.266 10.687 36.357z"/></symbol></svg>