<?xml version="1.0" encoding="utf-8"?>
<!-- Generator: Adobe Illustrator 21.1.0, SVG Export Plug-In . SVG Version: 6.00 Build 0)  -->
<svg version="1.1" id="Layer_1" xmlns="http://www.w3.org/2000/svg" xmlns:xlink="http://www.w3.org/1999/xlink" x="0px" y="0px"
	 viewBox="0 0 512 512" style="enable-background:new 0 0 512 512;" xml:space="preserve">
<style type="text/css">
	.st0{fill:#FF405F;}
	.st1{fill:#0094E2;}
	.st2{fill:#E0E0E0;}
	.st3{fill:#F1F1F1;}
</style>
<path class="st0" d="M473.8,8H28.1C12.6,8,0,20.5,0,36s12.6,28.1,28.1,28.1h445.7L512,36L473.8,8z"/>
<path class="st0" d="M256,8H28.1C12.6,8,0,20.5,0,36c0,15.5,12.6,28.1,28.1,28.1H256V8z"/>
<path class="st1" d="M512,469c0,19.3-15.7,35-35,35H35c-19.3,0-35-15.7-35-35V147c0-19.3,15.7-35,35-35h442c19.3,0,35,15.7,35,35
	V469z"/>
<path class="st1" d="M256,112H35c-19.3,0-35,15.7-35,35v322c0,19.3,15.7,35,35,35h221V112z"/>
<rect x="115" y="177" class="st2" width="332" height="262"/>
<g>
	<rect x="115" y="177" class="st3" width="141" height="262"/>
	<circle class="st3" cx="57.5" cy="308" r="22.2"/>
	<rect x="35.3" y="230.6" class="st3" width="44.3" height="31.3"/>
	<rect x="35.3" y="180.6" class="st3" width="44.3" height="31.3"/>
	<rect x="35.3" y="404.1" class="st3" width="44.3" height="31.3"/>
	<rect x="35.3" y="354.1" class="st3" width="44.3" height="31.3"/>
</g>
</svg>
